<?xml version="1.0" encoding="UTF-8" standalone="no"?>
<!-- Created with Inkscape (http://www.inkscape.org/) -->

<svg
   xmlns:dc="http://purl.org/dc/elements/1.1/"
   xmlns:cc="http://creativecommons.org/ns#"
   xmlns:rdf="http://www.w3.org/1999/02/22-rdf-syntax-ns#"
   xmlns:svg="http://www.w3.org/2000/svg"
   xmlns="http://www.w3.org/2000/svg"
   xmlns:xlink="http://www.w3.org/1999/xlink"
   xmlns:sodipodi="http://sodipodi.sourceforge.net/DTD/sodipodi-0.dtd"
   xmlns:inkscape="http://www.inkscape.org/namespaces/inkscape"
   id="svg2"
   sodipodi:version="0.32"
   inkscape:version="0.92.2 (5c3e80d, 2017-08-06)"
   width="64"
   height="64"
   sodipodi:docname="MusicAcademyLogo.svg"
   inkscape:output_extension="org.inkscape.output.svg.inkscape"
   inkscape:export-filename="/home/jwilson/src/java/kiegroup/optaplanner/optaplanner-examples/src/main/resources/org/optaplanner/examples/musicacademy/swingui/MusicAcademyLogo.png"
   inkscape:export-xdpi="96"
   inkscape:export-ydpi="96"
   version="1.1">
  <metadata
     id="metadata7">
    <rdf:RDF>
      <cc:Work
         rdf:about="">
        <dc:format>image/svg+xml</dc:format>
        <dc:type
           rdf:resource="http://purl.org/dc/dcmitype/StillImage" />
        <dc:creator>
          <cc:Agent>
            <dc:title>www.optaplanner.org</dc:title>
          </cc:Agent>
        </dc:creator>
        <dc:title />
        <dc:rights>
          <cc:Agent>
            <dc:title>www.optaplanner.org</dc:title>
          </cc:Agent>
        </dc:rights>
        <dc:language>en</dc:language>
        <cc:license
           rdf:resource="https://www.optaplanner.org/code/license.html" />
      </cc:Work>
    </rdf:RDF>
  </metadata>
  <defs
     id="defs5">
    <linearGradient
       inkscape:collect="always"
       id="linearGradient4902">
      <stop
         style="stop-color:#ff0000;stop-opacity:1;"
         offset="0"
         id="stop4898" />
      <stop
         style="stop-color:#ff0000;stop-opacity:0;"
         offset="1"
         id="stop4900" />
    </linearGradient>
    <linearGradient
       id="linearGradient4163">
      <stop
         id="stop4893"
         offset="0.0000000"
         style="stop-color:#3b74bc;stop-opacity:1.0000000;" />
      <stop
         id="stop4895"
         offset="1.0000000"
         style="stop-color:#2d5990;stop-opacity:1.0000000;" />
    </linearGradient>
    <linearGradient
       id="linearGradient3889">
      <stop
         style="stop-color:#ffffff;stop-opacity:1;"
         offset="0"
         id="stop3891" />
      <stop
         style="stop-color:#f7f7f7;stop-opacity:1;"
         offset="1"
         id="stop3893" />
    </linearGradient>
    <linearGradient
       id="linearGradient3863">
      <stop
         id="stop3879"
         offset="0"
         style="stop-color:#ffffff;stop-opacity:1;" />
      <stop
         style="stop-color:#eeeeec;stop-opacity:1;"
         offset="1"
         id="stop3867" />
    </linearGradient>
    <linearGradient
       id="linearGradient3855">
      <stop
         style="stop-color:#eeeeec;stop-opacity:1;"
         offset="0"
         id="stop3857" />
      <stop
         style="stop-color:#eeeeec;stop-opacity:0;"
         offset="1"
         id="stop3859" />
    </linearGradient>
    <linearGradient
       id="linearGradient3063">
      <stop
         style="stop-color:#ffffff;stop-opacity:1;"
         offset="0"
         id="stop3065" />
      <stop
         style="stop-color:#ffffff;stop-opacity:0;"
         offset="1"
         id="stop3067" />
    </linearGradient>
    <linearGradient
       inkscape:collect="always"
       xlink:href="#linearGradient1322"
       id="linearGradient4975"
       x1="34.892849"
       y1="36.422989"
       x2="45.918697"
       y2="48.547989"
       gradientUnits="userSpaceOnUse"
       gradientTransform="translate(-18.01785,2.428811)" />
    <linearGradient
       id="linearGradient1322">
      <stop
         id="stop1324"
         offset="0.0000000"
         style="stop-color:#729fcf" />
      <stop
         id="stop1326"
         offset="1.0000000"
         style="stop-color:#5187d6;stop-opacity:1.0000000;" />
    </linearGradient>
    <linearGradient
       gradientTransform="translate(-1.9043922e-7,16.000001)"
       inkscape:collect="always"
       xlink:href="#linearGradient7916"
       id="linearGradient7922"
       x1="16.874998"
       y1="22.851799"
       x2="27.900846"
       y2="34.976799"
       gradientUnits="userSpaceOnUse" />
    <linearGradient
       id="linearGradient7916">
      <stop
         style="stop-color:#ffffff;stop-opacity:1;"
         offset="0"
         id="stop7918" />
      <stop
         style="stop-color:#ffffff;stop-opacity:0.34020618;"
         offset="1.0000000"
         id="stop7920" />
    </linearGradient>
    <radialGradient
       inkscape:collect="always"
       xlink:href="#linearGradient2091"
       id="radialGradient2097"
       cx="23.070683"
       cy="35.127438"
       fx="23.070683"
       fy="35.127438"
       r="10.31934"
       gradientTransform="matrix(0.914812,0.01265023,-0.00821502,0.213562,2.253914,27.18889)"
       gradientUnits="userSpaceOnUse" />
    <linearGradient
       inkscape:collect="always"
       id="linearGradient2091">
      <stop
         style="stop-color:#000000;stop-opacity:1;"
         offset="0"
         id="stop2093" />
      <stop
         style="stop-color:#000000;stop-opacity:0;"
         offset="1"
         id="stop2095" />
    </linearGradient>
    <radialGradient
       r="10.31934"
       fy="35.127438"
       fx="23.070683"
       cy="35.127438"
       cx="23.070683"
       gradientTransform="matrix(0.914812,0.01265023,-0.00821502,0.213562,2.253914,27.18889)"
       gradientUnits="userSpaceOnUse"
       id="radialGradient3083"
       xlink:href="#linearGradient2091"
       inkscape:collect="always" />
    <radialGradient
       inkscape:collect="always"
       xlink:href="#linearGradient2091"
       id="radialGradient3037"
       gradientUnits="userSpaceOnUse"
       gradientTransform="matrix(0.914812,0.01265023,-0.00821502,0.213562,2.253914,27.18889)"
       cx="23.070683"
       cy="35.127438"
       fx="23.070683"
       fy="35.127438"
       r="10.31934" />
    <linearGradient
       id="linearGradient2667">
      <stop
         id="stop2669"
         offset="0.0000000"
         style="stop-color:#ffffff;stop-opacity:1.0000000;" />
      <stop
         id="stop2671"
         offset="1.0000000"
         style="stop-color:#fcfcff;stop-opacity:0.0000000;" />
    </linearGradient>
    <radialGradient
       inkscape:collect="always"
       xlink:href="#linearGradient3816"
       id="radialGradient4179"
       gradientUnits="userSpaceOnUse"
       cx="31.112698"
       cy="19.008621"
       fx="31.112698"
       fy="19.008621"
       r="8.6620579"
       gradientTransform="matrix(1.9036739,0,0,0.62613848,-77.857202,42.792709)" />
    <linearGradient
       inkscape:collect="always"
       id="linearGradient3816">
      <stop
         style="stop-color:#000000;stop-opacity:1;"
         offset="0"
         id="stop3818" />
      <stop
         style="stop-color:#000000;stop-opacity:0;"
         offset="1"
         id="stop3820" />
    </linearGradient>
    <linearGradient
       id="linearGradient4163-3">
      <stop
         style="stop-color:#3b74bc;stop-opacity:1.0000000;"
         offset="0.0000000"
         id="stop4165" />
      <stop
         style="stop-color:#2d5990;stop-opacity:1.0000000;"
         offset="1.0000000"
         id="stop4167" />
    </linearGradient>
    <linearGradient
       id="linearGradient3824">
      <stop
         style="stop-color:#ffffff;stop-opacity:1;"
         offset="0"
         id="stop3826" />
      <stop
         style="stop-color:#c9c9c9;stop-opacity:1.0000000;"
         offset="1.0000000"
         id="stop3828" />
    </linearGradient>
    <radialGradient
       inkscape:collect="always"
       xlink:href="#linearGradient3816"
       id="radialGradient3822"
       cx="31.112698"
       cy="19.008621"
       fx="31.112698"
       fy="19.008621"
       r="8.6620579"
       gradientUnits="userSpaceOnUse"
       gradientTransform="matrix(1.0721843,0,0,1.0721843,-51.987303,16.225526)" />
    <radialGradient
       inkscape:collect="always"
       xlink:href="#linearGradient3800"
       id="radialGradient4171"
       gradientUnits="userSpaceOnUse"
       cx="29.344931"
       cy="17.064077"
       fx="29.344931"
       fy="17.064077"
       r="9.1620579"
       gradientTransform="matrix(0.84487908,0,0,0.84487908,-45.183009,16.351644)" />
    <linearGradient
       id="linearGradient3800">
      <stop
         style="stop-color:#f4d9b1;stop-opacity:1.0000000;"
         offset="0.0000000"
         id="stop3802" />
      <stop
         style="stop-color:#df9725;stop-opacity:1.0000000;"
         offset="1.0000000"
         id="stop3804" />
    </linearGradient>
    <linearGradient
       inkscape:collect="always"
       xlink:href="#linearGradient4356"
       id="linearGradient4362"
       x1="20.661695"
       y1="35.817974"
       x2="22.626925"
       y2="36.217758"
       gradientUnits="userSpaceOnUse"
       gradientTransform="matrix(0.983375,0.181588,-0.181588,0.983375,6.231716,-2.651466)" />
    <linearGradient
       inkscape:collect="always"
       id="linearGradient4356">
      <stop
         style="stop-color:#000000;stop-opacity:1;"
         offset="0"
         id="stop4358" />
      <stop
         style="stop-color:#000000;stop-opacity:0;"
         offset="1"
         id="stop4360" />
    </linearGradient>
    <linearGradient
       inkscape:collect="always"
       xlink:href="#linearGradient4356"
       id="linearGradient4366"
       gradientUnits="userSpaceOnUse"
       x1="22.686766"
       y1="36.3904"
       x2="21.408455"
       y2="35.739632"
       gradientTransform="matrix(-0.977685,0.210075,0.210075,0.977685,55.1096,-3.945209)" />
    <linearGradient
       y2="35.739632"
       x2="21.408455"
       y1="36.3904"
       x1="22.686766"
       gradientTransform="matrix(1.0482585,0.22523912,-0.22523912,1.0482585,-7.234368,8.2428898)"
       gradientUnits="userSpaceOnUse"
       id="linearGradient3117"
       xlink:href="#linearGradient4356"
       inkscape:collect="always" />
    <radialGradient
       inkscape:collect="always"
       xlink:href="#linearGradient3800"
       id="radialGradient3180"
       gradientUnits="userSpaceOnUse"
       gradientTransform="matrix(0.787998,0,0,0.787998,6.221198,3.617627)"
       cx="29.344931"
       cy="17.064077"
       fx="29.344931"
       fy="17.064077"
       r="9.1620579" />
    <radialGradient
       inkscape:collect="always"
       xlink:href="#linearGradient4902"
       id="radialGradient4908"
       cx="43.656734"
       cy="47.732296"
       fx="43.656734"
       fy="47.732296"
       r="15.402876"
       gradientTransform="matrix(-9.1436829,-0.05438547,-0.01514425,2.5461366,419.41566,-71.426356)"
       gradientUnits="userSpaceOnUse" />
  </defs>
  <sodipodi:namedview
     inkscape:window-height="1016"
     inkscape:window-width="1920"
     inkscape:pageshadow="2"
     inkscape:pageopacity="0.0"
     guidetolerance="10.0"
     gridtolerance="10.0"
     objecttolerance="10.0"
     borderopacity="1.0"
     bordercolor="#666666"
     pagecolor="#ffffff"
     id="base"
     inkscape:zoom="10.068596"
     inkscape:cx="-0.032516662"
     inkscape:cy="29.307915"
     inkscape:window-x="0"
     inkscape:window-y="27"
     inkscape:current-layer="svg2"
     inkscape:grid-points="true"
     inkscape:object-nodes="true"
     inkscape:guide-points="true"
     inkscape:object-points="true"
     inkscape:object-bbox="true"
     showgrid="true"
     inkscape:window-maximized="1"
     inkscape:snap-global="true"
     showguides="true"
     inkscape:guide-bbox="true" />
  <g
     id="g1021"
     transform="matrix(0.01723441,0,0,0.01723441,7.338731,-0.22740311)">
    <g
       id="XMLID_7_">
      <g
         id="g1024">
        <path
           d="m 3107,1733.4 5.4,46.8 c 0,0 -1568.7,87.5 -1650.1,92 -81.4,4.8 -157.1,-64.1 -157.1,-64.1 0,0 -19,-4.8 -129.6,0 C 1065,1812.9 121,1720.6 107.4,1707 c -7.5,-7.5 -9.8,-30.2 -8.5,-55.3 27.1,3.4 1115,142.2 1237.8,96.7 l 109.6,69.2 1653.5,-82.8 z"
           id="path1026"
           inkscape:connector-curvature="0"
           style="fill:#cdcdce" />
        <path
           d="m 3099.9,1669.6 7.1,63.8 -7.1,0.7 -1653.5,82.8 -109.6,-69.2 C 1214,1793.2 126.1,1654.7 99,1651 c 1,-20.7 4.1,-43.1 8.5,-60.1 0,0 1160.5,152 1229.3,119.8 l 113.7,36.6 249.1,-11.9 1381,-66.2 z"
           id="path1028"
           inkscape:connector-curvature="0"
           style="fill:#1b181c" />
        <polygon
           points="1699.2,1651.3 1701.2,1520 1703.9,1361.2 1873.9,1361.2 1903.1,1669.6 2496.9,1651.3 2544.4,1651.3 2544.4,1591.6 3090.7,1591.6 3099.9,1669.6 3079.8,1669.6 1699.2,1736.1 "
           id="polygon1030"
           style="fill:#c2c3c3" />
        <path
           d="m 3068.6,1398.2 22.1,193.4 h -546.3 v 59.7 h -47.5 l -593.8,18.3 -28.8,-308.4 54,-32.6 c 0,0 0,0 0,0.3 l 10.9,-6.8 2.4,-1.4 60.7,-37.7 104.2,9.2 208.3,92 h 156.8 l 73.3,27.8 18.7,1.7 35.6,3.4 43.1,4.1 z"
           id="path1032"
           inkscape:connector-curvature="0"
           style="fill:#c2c3c3" />
        <path
           d="M 1881.4,396.8 C 1900.7,276 1941.5,164 1941.5,164 c 0,0 127.6,-36.6 449.9,345.4 v 0 c 322.4,382.1 250.4,911.7 250.4,911.7 l -43.1,-4.1 0.7,-5.1 c 0,0 -46.8,-782.8 -631.5,-1197.1"
           id="path1034_1_"
           inkscape:connector-curvature="0"
           style="fill:#ffffff" />
        <path
           d="m 2599,1411.7 -0.3,5.1 -35.6,-3.4 0.3,-1.7 c 20.4,-294.5 -416.7,-824.2 -416.7,-824.2 l -5.1,-5.1 53.6,-54 v 0 c 161.9,206.7 366.5,530.8 403.8,883.3 z"
           id="path1036"
           inkscape:connector-curvature="0"
           style="fill:#ffffff" />
        <path
           d="m 2146.7,587.5 c 0,0 436.7,529.7 416.7,824.2 l -0.3,1.7 -18.7,-1.7 -73.3,-27.8 h -117.4 c 0,0 -279.9,-598.6 -685.4,-865.6 41.7,-18.3 205.6,41.4 205.6,41.4 0,0 21.4,3.7 51.9,14.6 22.1,7.8 48.9,19.7 76,36.6 v 0 c 21,13.2 42.1,29.5 61.1,49.9 l 78.4,-78.7 z"
           id="path1038"
           inkscape:connector-curvature="0"
           style="fill:#ffffff" />
        <path
           d="M 1967.6,214.6 C 2552.2,628.9 2599,1411.7 2599,1411.7 2561.3,1058.8 2356.7,735.1 2195.2,528.5 2150.7,471.8 2109.7,424 2075.8,386.7 c -51.6,-57.3 -85.5,-89.2 -85.5,-89.2 -73.6,93.7 -62.4,271.8 -62.4,271.8 l -2,5.4 c -30.5,-11.2 -51.9,-14.6 -51.9,-14.6 -6.1,-49.5 -1.7,-107.6 7.5,-163.2 21.9,-92 86.1,-182.3 86.1,-182.3 z"
           id="path1040"
           inkscape:connector-curvature="0"
           style="fill:#1b181c" />
        <path
           d="m 1766,641.8 c -41.1,-42.4 -67.2,-67.9 -67.2,-67.9 l -93.7,175.4 -34.9,-13.9 97.7,-216.5 c 405.5,267 685.4,865.6 685.4,865.6 H 2314 C 2275.7,1185.1 1917.7,797.9 1766,641.8 Z"
           id="path1042"
           inkscape:connector-curvature="0"
           style="fill:#1b181c" />
        <path
           d="m 1563.1,745 c 1,-1 1,-3.4 -1,-8.1 l 8.5,-1.7 34.9,13.9 64.5,26.1 v 0 l 94.3,38 37.7,-82.8 c 0,0 444.8,409.9 512.4,653.9 l -208.3,-92 -104.2,-9.2 -60.7,37.7 c -132,-256.9 -678.3,-575.1 -678.3,-575.1 16.6,-15.9 80.8,-17.6 145.9,-14.6 39.4,2 78.7,5.8 108.6,8.8 17.6,2 31.9,3.7 40.4,4.8 2.2,0.6 4.3,1.3 5.3,0.3 z"
           id="path1044"
           inkscape:connector-curvature="0"
           style="fill:#ffffff" />
        <path
           d="m 2195.2,528.5 v 0 l -53.6,54 -78.4,78.7 c -19.3,-20 -40.4,-36.6 -61.1,-49.9 v 0 l 74,-224.6 c 33.6,37.3 74.7,85.1 119.1,141.8 z"
           id="path1046"
           inkscape:connector-curvature="0"
           style="fill:#046992" />
        <path
           d="m 2076.1,387 -74,224.6 c -27.1,-17 -54,-28.8 -76,-36.6 l 2,-5.4 c 0,0 -10.9,-178.1 62.4,-271.8 0.1,-0.4 33.7,31.8 85.6,89.2 z"
           id="path1048"
           inkscape:connector-curvature="0"
           style="fill:#ffffff" />
        <path
           d="m 2314.3,1384.2 c -67.5,-244 -512.4,-653.9 -512.4,-653.9 l -37.7,82.8 -94.3,-38 29.2,-7.8 67.2,-125.5 c 151.4,156.1 509.4,543.3 548,742.4 z"
           id="path1050"
           inkscape:connector-curvature="0"
           style="fill:#046992" />
        <path
           d="m 1941.4,1320.8 -2.4,1.4 -10.9,6.8 c -58,-111.6 -389.9,-361.7 -548,-476.7 -50.9,-37 -83.8,-60.1 -83.8,-60.1 l -45.8,72.6 12.2,-119.4 c 0.1,-0.1 546.7,318.2 678.7,575.4 z"
           id="path1052"
           inkscape:connector-curvature="0"
           style="fill:#1b181c" />
        <path
           d="m 1938.7,1322.1 -10.9,6.8 c 0,0 0,0 0,-0.3 z"
           id="path1054"
           inkscape:connector-curvature="0"
           style="fill:#ffffff" />
        <path
           d="m 1927.9,1328.6 -54,32.6 h -170 l -49.5,-18.3 v -27.5 l -113,-9.5 2,-25.8 c 104.2,9.2 206.6,14.9 224.6,5.4 38.3,-20.7 78.7,-9.8 -3.7,-77.4 -13.9,-11.5 -33.9,-27.5 -57.7,-46.5 -79.1,-62.8 -199.5,-156.8 -269.8,-211.7 -34.3,-26.8 -57,-44.5 -57,-44.5 l -70.2,94.3 c 31.6,-80.4 70.2,-147.6 70.2,-147.6 158.2,115.1 490,365.2 548.1,476.5 z"
           id="path1056"
           inkscape:connector-curvature="0"
           style="fill:#ffffff" />
        <path
           d="m 1764.3,1207.8 c 82.5,67.5 41.7,56.7 3.7,77.4 -18,9.8 -120.5,3.7 -224.6,-5.4 -81.1,-7.1 -163.6,-15.9 -207,-21 l 10.2,-92 z"
           id="path1058"
           inkscape:connector-curvature="0"
           style="fill:#c2c3c3" />
        <path
           d="m 1766,641.8 -67.2,125.5 -29.2,7.8 v 0 l -64.5,-26.1 93.7,-175.4 c 0.4,0 26.2,25.8 67.2,68.2 z"
           id="path1060"
           inkscape:connector-curvature="0"
           style="fill:#ffffff" />
        <path
           d="m 1764.3,1207.8 -417.7,-40.7 8.5,-75.7 -60.7,40.7 60.7,-79.1 90.9,13.2 260.6,95 c 23.8,19.1 43.8,35.1 57.7,46.6 z"
           id="path1062"
           inkscape:connector-curvature="0"
           style="fill:#ffffff" />
        <path
           d="m 1706.6,1161.3 -260.6,-95 -9.5,-116.7 c 70.6,54.9 191.1,148.9 270.1,211.7 z"
           id="path1064"
           inkscape:connector-curvature="0"
           style="fill:#046992" />
        <path
           d="m 1703.9,1361.2 -2.7,158.8 h -2.4 v -99.1 l -252.8,-9.2 c 0,0 -252.5,-27.8 -266,-27.8 -10.9,0 -136.7,-14.6 -187.3,-20.4 l 29.2,-2.4 24.1,-69.2 565,50.6 h 43.8 z"
           id="path1066"
           inkscape:connector-curvature="0"
           style="fill:#c2c3c3" />
        <polygon
           points="1446,1520 1699.2,1520 1701.2,1520 1699.2,1651.3 1379.9,1651.3 889.2,1591.6 889.2,1448.7 948.6,1458.2 1163.4,1493.5 "
           id="polygon1068"
           style="fill:#ffffff" />
        <path
           d="m 1699.2,1651.3 v 84.8 l -249.1,11.9 -113.7,-36.6 c -69.2,32.2 -1229.3,-119.8 -1229.3,-119.8 6.8,-27.5 295.5,-75.3 441.8,-98.1 l 340.3,98.1 490.7,59.7 z"
           id="path1070"
           inkscape:connector-curvature="0"
           style="fill:#cdcdce" />
        <path
           d="m 1699.2,1420.9 v 99.1 h -252.8 l -283,-26.8 -214.4,-34.9 23.1,-97 c 0,0 8.1,1 21,2.4 50.6,5.8 176.4,20.4 187.3,20.4 13.9,0 266,27.8 266,27.8 z"
           id="path1072"
           inkscape:connector-curvature="0"
           style="fill:#1b181c" />
        <path
           d="m 1668.3,518.6 -97.7,216.5 -8.5,1.7 c -2.7,-6.4 -8.8,-17 -20.4,-33.9 -43.8,-64.5 -204.9,-354.6 -204.9,-354.6 64.1,0 331.5,170.3 331.5,170.3 z"
           id="path1074"
           inkscape:connector-curvature="0"
           style="fill:#ffffff" />
        <polygon
           points="1041.9,1264.5 1541.4,1305.9 1654.4,1315 1654.4,1342.8 1610.6,1342.8 1045.6,1292.3 "
           id="polygon1076"
           style="fill:#ffffff" />
        <path
           d="m 1517.6,739.5 c -29.9,-3.1 -69.6,-6.8 -108.6,-8.8 l 0.3,-9.8 -72.6,-372.6 c 0,0 161.2,290.1 204.9,354.6 11.5,17 17.6,27.5 20.4,33.9 2,4.8 2,7.5 1,8.1 -1.4,-0.3 -3.1,-0.3 -5.1,-0.7 -8.4,-0.9 -22.6,-2.6 -40.3,-4.7 z"
           id="path1078"
           inkscape:connector-curvature="0"
           style="fill:#1b181c" />
        <path
           d="m 1563.1,745 c -1,1 -3.1,0.3 -5.1,-0.7 2,0.3 3.7,0.3 5.1,0.7 z"
           id="path1080"
           inkscape:connector-curvature="0"
           style="fill:#ffffff" />
        <path
           d="m 1268.2,1166.7 c -0.7,39.4 9.2,71.6 37,88.6 0,0 11.9,1.4 31.6,3.7 43.4,4.8 125.5,13.9 207,21 l -2,25.8 -499.8,-41.4 178.5,-105.9 12.2,-119.4 10.5,-101.5 7.5,-72.6 45.8,-72.6 c 0,0 32.9,23.1 83.8,60.1 50.9,37 -38.3,67.2 -70.2,147.6 v 0 c -2.4,5.8 -4.8,11.9 -6.8,18 -19.1,49.9 -34.4,103.8 -35.1,148.6 z"
           id="path1082"
           inkscape:connector-curvature="0"
           style="fill:#1b181c" />
        <path
           d="m 1436.9,949.6 9.5,116.7 -90.9,-13.2 24.8,-147.9 c -0.4,0.3 22.3,17.6 56.6,44.4 z"
           id="path1084"
           inkscape:connector-curvature="0"
           style="fill:#046992" />
        <path
           d="m 1409.4,721.2 -0.3,9.8 c -65.1,-3.1 -129.3,-1.7 -145.9,14.6 L 1251,865 c -35.3,-72.6 -225.3,-272.5 -225.3,-272.5 148.9,-0.2 383.7,128.7 383.7,128.7 z"
           id="path1086"
           inkscape:connector-curvature="0"
           style="fill:#ffffff" />
        <path
           d="m 1294.4,1132.5 -26.1,34.3 c 0.7,-44.8 15.9,-98.7 34.6,-149 2.4,-6.1 4.8,-12.2 6.8,-18 v 0 l 70.2,-94.3 -24.8,147.9 z"
           id="path1088"
           inkscape:connector-curvature="0"
           style="fill:#046992" />
        <path
           d="m 1355.1,1091.7 -8.5,75.7 -10.2,92 c -19.7,-2.4 -31.6,-3.7 -31.6,-3.7 -27.8,-17 -37.7,-49.2 -37,-88.6 l 26.1,-34.3 z"
           id="path1090"
           inkscape:connector-curvature="0"
           style="fill:#c2c3c3" />
        <path
           d="m 1250.6,864.7 -7.5,72.6 h -22.7 L 1083.3,791.7 c -37,-44.1 -58,-199.9 -58,-199.9 0,0 190,200.3 225.3,272.9 z"
           id="path1092"
           inkscape:connector-curvature="0"
           style="fill:#1b181c" />
        <path
           d="m 1243.1,937.7 -10.5,101.5 -265,27.5 v 0 L 692.1,792.5 v 0 c 115,-53.3 391.2,0 391.2,0 L 1220.4,938 h 22.7 z"
           id="path1094"
           inkscape:connector-curvature="0"
           style="fill:#ffffff" />
        <polygon
           points="1232.6,1039.2 1220.4,1158.6 1083.3,1181.7 967.6,1066.3 "
           id="polygon1096"
           style="fill:#ffffff" />
        <path
           d="m 1220.4,1158.6 -178.5,105.9 -50.2,-37 c 18,-23.1 50.2,-46.1 50.2,-46.1 h 41.4 z"
           id="path1098"
           inkscape:connector-curvature="0"
           style="fill:#ffffff" />
        <path
           d="m 1083.3,1181.7 h -41.4 L 1025.6,1167.1 857,1016.4 782.4,949.6 v 0 C 753.2,872.6 694.5,795.2 692.5,792.2 L 968,1066.4 v 0 z"
           id="path1100"
           inkscape:connector-curvature="0"
           style="fill:#1b181c" />
        <path
           d="m 1041.9,1264.5 3.7,27.5 -24.1,69.2 -29.2,2.4 c -12.9,-1.7 -21,-2.4 -21,-2.4 l -23.1,97 -59.4,-9.8 v 142.9 l -340.3,-98.1 c 49.9,-7.8 83.1,-12.6 83.1,-12.6 l 31.6,12.6 h 189 l 9.8,-166.6 -170.7,-9.8 v -1.7 l 55.3,-81.1 115,21.4 z"
           id="path1102"
           inkscape:connector-curvature="0"
           style="fill:#ffffff" />
        <path
           d="m 1025.3,1166.7 16.3,14.6 c 0,0 -32.2,23.1 -50.2,46.1 -17.6,22.7 -321,-23.8 -327.8,-24.8 v 0 c -14.9,-10.9 -31.6,-17 -31.6,-17 0,0 0,-36.6 124.2,-92 54,-24.1 48.9,-84.2 25.8,-144.5 v 0 l 74.6,66.8 c 15.9,76 -100.4,150.7 -100.4,150.7 z"
           id="path1104"
           inkscape:connector-curvature="0"
           style="fill:#1b181c" />
        <path
           d="m 1041.9,1264.5 -179.5,-9.2 -115,-21.4 -55.3,81.1 v 1.7 l -28.2,-1.7 v -41.4 c 40.4,-29.9 22.1,-55 0,-70.6 6.8,1 310.1,47.5 327.8,24.8 z"
           id="path1106"
           inkscape:connector-curvature="0"
           style="fill:#ffffff" />
        <path
           d="M 1025.3,1166.7 H 756.2 c 0,0 116.4,-74.6 100.4,-150.7 z"
           id="path1108"
           inkscape:connector-curvature="0"
           style="fill:#046992" />
        <polygon
           points="663.6,1315 691.7,1316.7 862.4,1326.6 852.6,1493.5 663.6,1493.5 632,1480.9 "
           id="polygon1110"
           style="fill:#c2c3c3" />
      </g>
      <g
         id="g1112">
        <path
           d="m 663.9,1203 c 21.7,15.6 40.4,40.7 0,70.6 v 41.4 l -31.6,165.6 c 0,0 -33.3,4.8 -83.1,12.6 -146.2,22.7 -435,70.6 -441.8,98.1 -4.1,16.6 -7.5,39 -8.5,60.1 -1.4,25.1 0.7,47.8 8.5,55.3 13.9,13.9 957.9,105.9 1068.2,101.1 110.6,-4.8 129.6,0 129.6,0 0,0 75.7,68.9 157.1,64.1 81.4,-4.8 1650.1,-92 1650.1,-92 l -5.4,-46.8 -7.1,-63.8 -8.8,-78.4 -22.1,-193.4 -427.2,23.1 c 0,0 71.9,-529.7 -250.4,-911.7 -322.3,-382 -449.9,-345.4 -449.9,-345.4 0,0 -40.7,112 -60.1,232.8 -9.2,56 -13.6,113.7 -7.5,163.2 0,0 -163.9,-60.1 -205.6,-41.4 0,0 -267.4,-170.3 -331.9,-170.3 l 72.6,372.9 c 0,0 -234.8,-128.9 -383.8,-128.9 -149.3,0 21,155.7 58,199.9 0,0 -276.2,-53.3 -391.2,0"
           id="path1114"
           inkscape:connector-curvature="0"
           style="fill:none;stroke:#1b181c;stroke-width:5" />
        <path
           d="m 692.1,792.1 c 2.4,3.1 60.7,80.4 89.9,157.4 23.1,60.4 28.2,120.5 -25.8,144.5 -124.2,55.3 -124.2,92 -124.2,92 0,0 16.6,6.1 31.6,17"
           id="path1116"
           inkscape:connector-curvature="0"
           style="fill:none;stroke:#1b181c;stroke-width:5" />
        <path
           d="m 1927.9,569.2 c 0,0 -10.9,-178.1 62.4,-271.8 73.6,-93.7 33.9,31.9 85.5,89.2 33.6,37.3 75,84.8 119.4,141.8 161.5,206.6 366.1,530.4 403.8,883.2 0,0 -46.8,-782.8 -631.5,-1197.1 0,0 -64.1,90.3 -86.2,181.9 -4.4,19 -7.5,38 -7.5,56.3"
           id="path1118"
           inkscape:connector-curvature="0"
           style="fill:none;stroke:#1b181c;stroke-width:5" />
        <path
           d="m 2146.7,587.5 c 0,0 436.7,529.7 416.7,824.2"
           id="path1120"
           inkscape:connector-curvature="0"
           style="fill:none;stroke:#1b181c;stroke-width:5" />
        <path
           d="m 2002.2,611.6 c 21,13.2 42.1,29.5 61.1,49.9 l 78.4,-78.7 53.6,-54"
           id="path1122"
           inkscape:connector-curvature="0"
           style="fill:none;stroke:#1b181c;stroke-width:5" />
        <path
           d="m 1873.9,560 c 0,0 21.4,3.7 51.9,14.6 22.1,7.8 48.9,19.7 76,36.6"
           id="path1124"
           inkscape:connector-curvature="0"
           style="fill:none;stroke:#1b181c;stroke-width:5" />
        <polyline
           points="2076.1,387 2002.2,611.6 2002.2,611.6    "
           id="polyline1126"
           style="fill:none;stroke:#1b181c;stroke-width:5" />
        <path
           d="m 1670,775.2 94.3,38 37.7,-82.8 c 0,0 444.8,409.9 512.4,653.9 h 156.8 l 73.3,27.8 18.7,1.7 35.6,3.4 43.1,4.1"
           id="path1128"
           inkscape:connector-curvature="0"
           style="fill:none;stroke:#1b181c;stroke-width:5" />
        <path
           d="m 2353.7,1384.2 c 0,0 -279.9,-598.6 -685.4,-865.6 l -97.7,216.5 34.9,13.9 64.5,26.1"
           id="path1130"
           inkscape:connector-curvature="0"
           style="fill:none;stroke:#1b181c;stroke-width:5" />
        <polyline
           points="1768,638.4 1766,641.8 1699.2,767      1670,775.2 1670,775.2    "
           id="polyline1132"
           style="fill:none;stroke:#1b181c;stroke-width:5" />
        <path
           d="m 1550.5,739.5 c 0,0 4.1,3.1 7.5,4.8 2,1 4.1,1.7 5.1,0.7 1,-1 1,-3.4 -1,-8.1 -2.7,-6.4 -8.8,-17 -20.4,-33.9 -43.8,-64.5 -204.9,-354.6 -204.9,-354.6"
           id="path1134"
           inkscape:connector-curvature="0"
           style="fill:none;stroke:#1b181c;stroke-width:5" />
        <polyline
           points="1520.3,745.3 1517.6,739.5 1409.4,518.6      1446,725.6    "
           id="polyline1136"
           style="fill:none;stroke:#1b181c;stroke-width:5" />
        <polyline
           points="967.6,1066.3 692.1,792.1 692.1,792.1    "
           id="polyline1138"
           style="fill:none;stroke:#1b181c;stroke-width:5" />
        <path
           d="m 1567.2,745.3 c 0,0 -1.4,-0.3 -3.7,-0.7 -1.4,-0.3 -3.1,-0.3 -5.1,-0.7 -8.5,-1 -22.7,-2.7 -40.4,-4.8 -29.9,-3.1 -69.6,-6.8 -108.6,-8.8 -65.1,-3.1 -129.3,-1.7 -145.9,14.6 l -12.2,119.4 -7.5,72.6 -10.5,101.5 -12.2,119.4 L 1084,1181 968.3,1066"
           id="path1140"
           inkscape:connector-curvature="0"
           style="fill:none;stroke:#1b181c;stroke-width:5" />
        <polyline
           points="1083.3,792.1 1220.4,937.7 1243.1,937.7         "
           id="polyline1142"
           style="fill:none;stroke:#1b181c;stroke-width:5" />
        <path
           d="m 1941.4,1320.8 60.7,-37.7 104.2,9.2 208.3,92 c -38.7,-199.2 -396.7,-586 -548.3,-742.4 -41.1,-42.4 -67.2,-67.9 -67.2,-67.9 l -93.7,175.4"
           id="path1144"
           inkscape:connector-curvature="0"
           style="fill:none;stroke:#1b181c;stroke-width:5" />
        <path
           d="m 1025.3,592.3 c 0,0 190,199.9 225.3,272.5 l 45.8,-72.6 c 0,0 32.9,23.1 83.8,60.1 158.1,115 490,365.1 548,476.7 0,0 0,0 0,0.3 l 10.9,-6.8"
           id="path1146"
           inkscape:connector-curvature="0"
           style="fill:none;stroke:#1b181c;stroke-width:5" />
        <polyline
           points="1232.6,1039.2 967.6,1066.3 967.6,1066.3         "
           id="polyline1148"
           style="fill:none;stroke:#1b181c;stroke-width:5" />
        <path
           d="m 1262.8,745.3 c 0,0 546.3,318.3 678.3,575.1 l -2.4,1.4 -10.9,6.8 -54,32.6 h -170 l -49.5,-18.3 v -27.5 l -113,-9.5 -499.5,-41.4 178.5,-105.9"
           id="path1150"
           inkscape:connector-curvature="0"
           style="fill:none;stroke:#1b181c;stroke-width:5" />
        <polyline
           points="782.3,949.6 857,1016.4 1025.3,1166.7      1041.9,1181.7 1083.3,1181.7    "
           id="polyline1152"
           style="fill:none;stroke:#1b181c;stroke-width:5" />
        <path
           d="M 1025.3,1166.7 H 756.2 c 0,0 116.4,-74.6 100.4,-150.7"
           id="path1154"
           inkscape:connector-curvature="0"
           style="fill:none;stroke:#1b181c;stroke-width:5" />
        <path
           d="m 663.6,1203 v 0 c 6.8,1 310.1,47.5 328.1,24.8 18,-23.1 50.2,-46.1 50.2,-46.1"
           id="path1156"
           inkscape:connector-curvature="0"
           style="fill:none;stroke:#1b181c;stroke-width:5" />
        <polyline
           points="991.7,1227.5 1041.9,1264.5 1045.6,1292.3      1610.6,1342.8 1654.4,1342.8    "
           id="polyline1158"
           style="fill:none;stroke:#1b181c;stroke-width:5" />
        <path
           d="m 107.1,1591.6 c 0,0 1160.5,152 1229.3,119.8 l 113.7,36.6 249.1,-11.9 1381,-66.2 h 19.7"
           id="path1160"
           inkscape:connector-curvature="0"
           style="fill:none;stroke:#1b181c;stroke-width:5" />
        <path
           d="m 98.3,1651.3 c 0,0 0.3,0 0.7,0 27.1,3.4 1115,142.2 1237.8,96.7 l 109.6,69.2 1653.5,-82.8"
           id="path1162"
           inkscape:connector-curvature="0"
           style="fill:none;stroke:#1b181c;stroke-width:5" />
        <polyline
           points="1873.9,1361.2 1903.1,1669.6 2496.9,1651.3      2544.4,1651.3 2544.4,1591.6 3090.7,1591.6    "
           id="polyline1164"
           style="fill:none;stroke:#1b181c;stroke-width:5" />
        <polyline
           points="548.9,1493.5 889.2,1591.6 1379.9,1651.3      1699.2,1651.3 1699.2,1736.1    "
           id="polyline1166"
           style="fill:none;stroke:#1b181c;stroke-width:5" />
        <polyline
           points="1703.9,1361.2 1701.2,1520 1699.2,1651.3         "
           id="polyline1168"
           style="fill:none;stroke:#1b181c;stroke-width:5" />
        <path
           d="m 948.6,1458.2 23.1,-97 c 0,0 8.1,1 21,2.4 50.6,5.8 176.4,20.4 187.3,20.4 13.9,0 266,27.8 266,27.8 l 252.8,9.2 v 99.1 H 1446 l -283,-26.8 -214.4,-35.1 -59.4,-9.8 v 142.9"
           id="path1170"
           inkscape:connector-curvature="0"
           style="fill:none;stroke:#1b181c;stroke-width:5" />
        <line
           y2="1361.2"
           x2="1021.9"
           y1="1292.3"
           x1="1045.6"
           id="line1172"
           style="fill:none;stroke:#1b181c;stroke-width:5" />
        <polyline
           points="663.6,1315 691.7,1316.7 862.4,1326.6      852.6,1493.5 663.6,1493.5 632,1480.9    "
           id="polyline1174"
           style="fill:none;stroke:#1b181c;stroke-width:5" />
        <polyline
           points="692.1,1315 747.4,1233.9 862.4,1255.3      1041.9,1264.5    "
           id="polyline1176"
           style="fill:none;stroke:#1b181c;stroke-width:5" />
        <path
           d="m 1310,999.5 c 31.6,-80.4 70.2,-147.6 70.2,-147.6"
           id="path1178"
           inkscape:connector-curvature="0"
           style="fill:none;stroke:#1b181c;stroke-width:5" />
        <path
           d="m 1436.9,949.6 9.5,116.7 -90.9,-13.2 24.8,-147.9 c -0.4,0.3 22.3,17.6 56.6,44.4 70.6,55 190.7,149 269.8,211.7 23.8,19 43.8,34.9 57.7,46.5 82.5,67.5 41.7,56.7 3.7,77.4 -18,9.8 -120.5,3.7 -224.6,-5.4 -81.1,-7.1 -163.6,-15.9 -207,-21 -19.7,-2.4 -31.6,-3.7 -31.6,-3.7 -27.8,-17 -37.7,-49.2 -37,-88.6 0.7,-44.8 15.9,-98.7 34.6,-149 2.4,-6.1 4.8,-12.2 6.8,-18"
           id="path1180"
           inkscape:connector-curvature="0"
           style="fill:none;stroke:#1b181c;stroke-width:5" />
        <polyline
           points="1379.9,905.5 1310,999.5 1309.6,999.8    "
           id="polyline1182"
           style="fill:none;stroke:#1b181c;stroke-width:5" />
        <polyline
           points="1355.1,1053.4 1294.4,1132.5 1268.2,1166.7      1268.2,1166.7    "
           id="polyline1184"
           style="fill:none;stroke:#1b181c;stroke-width:5" />
        <line
           y2="1161.3"
           x2="1706.6"
           y1="1066.3"
           x1="1446"
           id="line1186"
           style="fill:none;stroke:#1b181c;stroke-width:5" />
        <polyline
           points="1294,1132.8 1294.4,1132.5 1355.1,1091.7      1346.6,1167.1 1336.8,1259    "
           id="polyline1188"
           style="fill:none;stroke:#1b181c;stroke-width:5" />
        <line
           y2="1167.1"
           x2="1346.6"
           y1="1207.8"
           x1="1764.3"
           id="line1190"
           style="fill:none;stroke:#1b181c;stroke-width:5" />
      </g>
    </g>
  </g>
  <ellipse
     cy="54.694736"
     cx="-18.628771"
     style="color:#000000;display:inline;overflow:visible;visibility:visible;fill:url(#radialGradient4179);fill-opacity:1;fill-rule:evenodd;stroke:none;stroke-width:1.09177077px;marker:none"
     id="path4306"
     rx="16.489733"
     ry="5.4236479"
     transform="scale(-1,1)" />
  <path
     style="color:#000000;display:inline;overflow:visible;visibility:visible;opacity:1;fill:url(#radialGradient4908);fill-opacity:1;fill-rule:evenodd;stroke:#9a2b5b;stroke-width:1.07200003;stroke-linecap:round;stroke-linejoin:round;stroke-miterlimit:4;stroke-dasharray:none;stroke-dashoffset:0;stroke-opacity:1;marker:none"
     d="M 23.991312,57.114388 H 12.61908 c -3.222132,0 -6.412181,-1.181474 -7.581487,-4.548893 C 3.927197,49.367731 4.848056,43.278173 12.050469,38.350206 H 25.50761 c 7.089944,7.895188 6.976681,1.136559 8.299405,1.742377 1.19411,0.546912 1.205767,8.140761 -7.074972,5.127542 0.832791,1.642173 4.065034,7.928912 3.628449,8.978867 -0.59713,1.436056 -2.957506,2.915396 -6.36918,2.915396 z"
     id="path4308"
     sodipodi:nodetypes="cczccscsc"
     inkscape:connector-curvature="0" />
  <ellipse
     ry="1.5830278"
     rx="2.164484"
     cy="52.370144"
     cx="7.6900387"
     transform="matrix(-0.65412752,0.75638429,0.75638429,0.65412752,0,0)"
     id="path3199"
     style="color:#000000;display:inline;overflow:visible;visibility:visible;fill:#fcaf3e;fill-opacity:1;fill-rule:evenodd;stroke:#c17d11;stroke-width:1.07218432px;stroke-linecap:round;stroke-linejoin:round;stroke-miterlimit:4;stroke-dasharray:none;stroke-dashoffset:0;stroke-opacity:1;marker:none" />
  <path
     sodipodi:nodetypes="cccc"
     id="path4312"
     d="m 20.789183,41.193264 c 0,0 2.306615,1.780185 2.107905,3.924766 2.188571,-1.930783 2.251451,-5.630601 2.251451,-5.630601 z"
     style="color:#000000;display:inline;overflow:visible;visibility:visible;fill:#729fcf;fill-opacity:1;fill-rule:evenodd;stroke:none;stroke-width:1.07218432px;marker:none"
     inkscape:connector-curvature="0" />
  <path
     style="color:#000000;display:inline;overflow:visible;visibility:visible;fill:#729fcf;fill-opacity:1;fill-rule:evenodd;stroke:none;stroke-width:1.07218432px;marker:none"
     d="m 16.03075,41.193264 c 0,0 -2.306615,1.780185 -2.107905,3.924766 -2.18857,-1.930783 -2.25145,-5.630601 -2.25145,-5.630601 z"
     id="path4316"
     sodipodi:nodetypes="cccc"
     inkscape:connector-curvature="0" />
  <circle
     r="9.287322"
     cy="36.60627"
     cx="-18.628756"
     id="path4318"
     style="color:#000000;display:inline;overflow:visible;visibility:visible;fill:url(#radialGradient3822);fill-opacity:1;fill-rule:evenodd;stroke:none;stroke-width:1.07218432px;marker:none"
     transform="scale(-1,1)" />
  <circle
     r="9.287322"
     cy="32.853626"
     cx="-18.494734"
     style="color:#000000;display:inline;overflow:visible;visibility:visible;fill:url(#radialGradient4171);fill-opacity:1;fill-rule:evenodd;stroke:#c17d11;stroke-width:1.07218432px;stroke-linecap:round;stroke-linejoin:round;stroke-miterlimit:4;stroke-dasharray:none;stroke-dashoffset:0;stroke-opacity:1;marker:none"
     id="path4320"
     transform="scale(-1,1)" />
  <circle
     r="8.1458645"
     cy="32.853642"
     cx="-18.494711"
     id="path4322"
     style="color:#000000;display:inline;overflow:visible;visibility:visible;opacity:0.19620254;fill:none;stroke:#ffffff;stroke-width:1.07218516px;stroke-linecap:round;stroke-linejoin:round;stroke-miterlimit:4;stroke-dasharray:none;stroke-dashoffset:0;stroke-opacity:1;marker:none"
     transform="scale(-1,1)" />
  <path
     sodipodi:nodetypes="cccc"
     id="path4364"
     d="M 8.153732,55.271097 C 6.833604,54.648181 6.219104,53.124239 6.219104,53.124239 c 1.028353,-4.334822 4.263164,-7.336765 4.263164,-7.336765 0,0 -2.642498,6.800438 -2.328536,9.483623 z"
     style="color:#000000;display:inline;overflow:visible;visibility:visible;opacity:0.22784807;fill:url(#linearGradient3117);fill-opacity:1;fill-rule:evenodd;stroke:none;stroke-width:1.07218432px;marker:none"
     inkscape:connector-curvature="0" />
  <path
     style="fill:none;stroke:#f9d216;stroke-width:1.92442179;stroke-linecap:round;stroke-linejoin:round;stroke-miterlimit:4;stroke-dashoffset:0;stroke-opacity:1"
     d="M 34.097744,40.237946 40.977356,24.185081"
     id="rect3126"
     inkscape:connector-curvature="0"
     sodipodi:nodetypes="cc" />
</svg>
