<?xml version="1.0" encoding="UTF-8"?>
<!-- Generator: Adobe Illustrator 18.0.0, SVG Export Plug-In . SVG Version: 6.00 Build 0)  -->
<!DOCTYPE svg PUBLIC "-//W3C//DTD SVG 1.1//EN" "http://www.w3.org/Graphics/SVG/1.1/DTD/svg11.dtd">
<svg version="1.1" id="Layer_1" xmlns="http://www.w3.org/2000/svg" xmlns:xlink="http://www.w3.org/1999/xlink" x="0px" y="0px" viewBox="0 0 3200 2000" enable-background="new 0 0 3200 2000" xml:space="preserve">
<g id="g1021">
	<g id="XMLID_7_">
		<g id="g1024">
			<path id="path1026" fill="#CDCDCE" d="M3107,1733.4l5.4,46.8c0,0-1568.7,87.5-1650.1,92c-81.4,4.8-157.1-64.1-157.1-64.1     s-19-4.8-129.6,0c-110.6,4.8-1054.6-87.5-1068.2-101.1c-7.5-7.5-9.8-30.2-8.5-55.3c27.1,3.4,1115,142.2,1237.8,96.7l109.6,69.2     l1653.5-82.8L3107,1733.4L3107,1733.4z"/>
			<path id="path1028" fill="#1B181C" d="M3099.9,1669.6l7.1,63.8l-7.1,0.7l-1653.5,82.8l-109.6-69.2     c-122.8,45.5-1210.7-93-1237.8-96.7c1-20.7,4.1-43.1,8.5-60.1c0,0,1160.5,152,1229.3,119.8l113.7,36.6l249.1-11.9l1381-66.2     L3099.9,1669.6L3099.9,1669.6z"/>
			<polygon id="polygon1030" fill="#C2C3C3" points="3090.7,1591.6 3099.9,1669.6 3079.8,1669.6 1699.2,1736.1 1699.2,1651.3      1701.2,1520 1703.9,1361.2 1873.9,1361.2 1903.1,1669.6 2496.9,1651.3 2544.4,1651.3 2544.4,1591.6    "/>
			<path id="path1032" fill="#C2C3C3" d="M3068.6,1398.2l22.1,193.4h-546.3v59.7h-47.5l-593.8,18.3l-28.8-308.4l54-32.6     c0,0,0,0,0,0.3l10.9-6.8l2.4-1.4l60.7-37.7l104.2,9.2l208.3,92h156.8l73.3,27.8l18.7,1.7l35.6,3.4l43.1,4.1L3068.6,1398.2     L3068.6,1398.2z"/>
			<path id="path1034_1_" fill="#FFFFFF" d="M1881.4,396.8c19.3-120.8,60.1-232.8,60.1-232.8s127.6-36.6,449.9,345.4l0,0     c322.4,382.1,250.4,911.7,250.4,911.7l-43.1-4.1l0.7-5.1c0,0-46.8-782.8-631.5-1197.1"/>
			<path id="path1036" fill="#FFFFFF" d="M2599,1411.7l-0.3,5.1l-35.6-3.4l0.3-1.7c20.4-294.5-416.7-824.2-416.7-824.2l-5.1-5.1     l53.6-54l0,0C2357.1,735.1,2561.7,1059.2,2599,1411.7L2599,1411.7z"/>
			<path id="path1038" fill="#FFFFFF" d="M2146.7,587.5c0,0,436.7,529.7,416.7,824.2l-0.3,1.7l-18.7-1.7l-73.3-27.8h-117.4     c0,0-279.9-598.6-685.4-865.6c41.7-18.3,205.6,41.4,205.6,41.4s21.4,3.7,51.9,14.6c22.1,7.8,48.9,19.7,76,36.6l0,0     c21,13.2,42.1,29.5,61.1,49.9l78.4-78.7L2146.7,587.5L2146.7,587.5z"/>
			<path id="path1040" fill="#1B181C" d="M1967.6,214.6C2552.2,628.9,2599,1411.7,2599,1411.7c-37.7-352.9-242.3-676.6-403.8-883.2     c-44.5-56.7-85.5-104.5-119.4-141.8c-51.6-57.3-85.5-89.2-85.5-89.2c-73.6,93.7-62.4,271.8-62.4,271.8l-2,5.4     c-30.5-11.2-51.9-14.6-51.9-14.6c-6.1-49.5-1.7-107.6,7.5-163.2C1903.4,304.9,1967.6,214.6,1967.6,214.6L1967.6,214.6z"/>
			<path id="path1042" fill="#1B181C" d="M1766,641.8c-41.1-42.4-67.2-67.9-67.2-67.9l-93.7,175.4l-34.9-13.9l97.7-216.5     c405.5,267,685.4,865.6,685.4,865.6H2314C2275.7,1185.1,1917.7,797.9,1766,641.8L1766,641.8z"/>
			<path id="path1044" fill="#FFFFFF" d="M1563.1,745c1-1,1-3.4-1-8.1l8.5-1.7l34.9,13.9l64.5,26.1l0,0l94.3,38l37.7-82.8     c0,0,444.8,409.9,512.4,653.9l-208.3-92l-104.2-9.2l-60.7,37.7c-132-256.9-678.3-575.1-678.3-575.1     c16.6-15.9,80.8-17.6,145.9-14.6c39.4,2,78.7,5.8,108.6,8.8c17.6,2,31.9,3.7,40.4,4.8C1560,745.3,1562.1,746,1563.1,745     L1563.1,745z"/>
			<path id="path1046" fill="#046992" d="M2195.2,528.5L2195.2,528.5l-53.6,54l-78.4,78.7c-19.3-20-40.4-36.6-61.1-49.9l0,0     l74-224.6C2109.7,424,2150.8,471.8,2195.2,528.5L2195.2,528.5z"/>
			<path id="path1048" fill="#FFFFFF" d="M2076.1,387l-74,224.6c-27.1-17-54-28.8-76-36.6l2-5.4c0,0-10.9-178.1,62.4-271.8     C1990.6,297.4,2024.2,329.6,2076.1,387L2076.1,387z"/>
			<path id="path1050" fill="#046992" d="M2314.3,1384.2c-67.5-244-512.4-653.9-512.4-653.9l-37.7,82.8l-94.3-38l29.2-7.8     l67.2-125.5C1917.7,797.9,2275.7,1185.1,2314.3,1384.2L2314.3,1384.2z"/>
			<path id="path1052" fill="#1B181C" d="M1941.4,1320.8l-2.4,1.4l-10.9,6.8c-58-111.6-389.9-361.7-548-476.7     c-50.9-37-83.8-60.1-83.8-60.1l-45.8,72.6l12.2-119.4C1262.8,745.3,1809.4,1063.6,1941.4,1320.8L1941.4,1320.8z"/>
			<path id="path1054" fill="#FFFFFF" d="M1938.7,1322.1l-10.9,6.8c0,0,0,0,0-0.3L1938.7,1322.1z"/>
			<path id="path1056" fill="#FFFFFF" d="M1927.9,1328.6l-54,32.6h-170l-49.5-18.3v-27.5l-113-9.5l2-25.8     c104.2,9.2,206.6,14.9,224.6,5.4c38.3-20.7,78.7-9.8-3.7-77.4c-13.9-11.5-33.9-27.5-57.7-46.5     c-79.1-62.8-199.5-156.8-269.8-211.7c-34.3-26.8-57-44.5-57-44.5l-70.2,94.3c31.6-80.4,70.2-147.6,70.2-147.6     C1538,967.2,1869.8,1217.3,1927.9,1328.6L1927.9,1328.6z"/>
			<path id="path1058" fill="#C2C3C3" d="M1764.3,1207.8c82.5,67.5,41.7,56.7,3.7,77.4c-18,9.8-120.5,3.7-224.6-5.4     c-81.1-7.1-163.6-15.9-207-21l10.2-92L1764.3,1207.8L1764.3,1207.8z"/>
			<path id="path1060" fill="#FFFFFF" d="M1766,641.8l-67.2,125.5l-29.2,7.8l0,0l-64.5-26.1l93.7-175.4     C1699.2,573.6,1725,599.4,1766,641.8L1766,641.8z"/>
			<path id="path1062" fill="#FFFFFF" d="M1764.3,1207.8l-417.7-40.7l8.5-75.7l-60.7,40.7l60.7-79.1l90.9,13.2l260.6,95     C1730.4,1180.3,1750.4,1196.3,1764.3,1207.8L1764.3,1207.8z"/>
			<path id="path1064" fill="#046992" d="M1706.6,1161.3l-260.6-95l-9.5-116.7C1507.1,1004.5,1627.6,1098.5,1706.6,1161.3z"/>
			<path id="path1066" fill="#C2C3C3" d="M1703.9,1361.2l-2.7,158.8h-2.4v-99.1l-252.8-9.2c0,0-252.5-27.8-266-27.8     c-10.9,0-136.7-14.6-187.3-20.4l29.2-2.4l24.1-69.2l565,50.6h43.8L1703.9,1361.2z"/>
			<polygon id="polygon1068" fill="#FFFFFF" points="1701.2,1520 1699.2,1651.3 1379.9,1651.3 889.2,1591.6 889.2,1448.7      948.6,1458.2 1163.4,1493.5 1446,1520 1699.2,1520    "/>
			<path id="path1070" fill="#CDCDCE" d="M1699.2,1651.3v84.8l-249.1,11.9l-113.7-36.6c-69.2,32.2-1229.3-119.8-1229.3-119.8     c6.8-27.5,295.5-75.3,441.8-98.1l340.3,98.1l490.7,59.7H1699.2L1699.2,1651.3z"/>
			<path id="path1072" fill="#1B181C" d="M1699.2,1420.9v99.1h-252.8l-283-26.8l-214.4-34.9l23.1-97c0,0,8.1,1,21,2.4     c50.6,5.8,176.4,20.4,187.3,20.4c13.9,0,266,27.8,266,27.8L1699.2,1420.9L1699.2,1420.9z"/>
			<path id="path1074" fill="#FFFFFF" d="M1668.3,518.6l-97.7,216.5l-8.5,1.7c-2.7-6.4-8.8-17-20.4-33.9     c-43.8-64.5-204.9-354.6-204.9-354.6C1400.9,348.3,1668.3,518.6,1668.3,518.6L1668.3,518.6z"/>
			<polygon id="polygon1076" fill="#FFFFFF" points="1654.4,1315 1654.4,1342.8 1610.6,1342.8 1045.6,1292.3 1041.9,1264.5      1541.4,1305.9    "/>
			<path id="path1078" fill="#1B181C" d="M1517.6,739.5c-29.9-3.1-69.6-6.8-108.6-8.8l0.3-9.8l-72.6-372.6     c0,0,161.2,290.1,204.9,354.6c11.5,17,17.6,27.5,20.4,33.9c2,4.8,2,7.5,1,8.1c-1.4-0.3-3.1-0.3-5.1-0.7     C1549.5,743.3,1535.3,741.6,1517.6,739.5L1517.6,739.5z"/>
			<path id="path1080" fill="#FFFFFF" d="M1563.1,745c-1,1-3.1,0.3-5.1-0.7C1560,744.6,1561.7,744.6,1563.1,745z"/>
			<path id="path1082" fill="#1B181C" d="M1268.2,1166.7c-0.7,39.4,9.2,71.6,37,88.6c0,0,11.9,1.4,31.6,3.7     c43.4,4.8,125.5,13.9,207,21l-2,25.8l-499.8-41.4l178.5-105.9l12.2-119.4l10.5-101.5l7.5-72.6l45.8-72.6c0,0,32.9,23.1,83.8,60.1     s-38.3,67.2-70.2,147.6l0,0c-2.4,5.8-4.8,11.9-6.8,18C1284.2,1068,1268.9,1121.9,1268.2,1166.7L1268.2,1166.7z"/>
			<path id="path1084" fill="#046992" d="M1436.9,949.6l9.5,116.7l-90.9-13.2l24.8-147.9C1379.9,905.5,1402.6,922.8,1436.9,949.6     L1436.9,949.6z"/>
			<path id="path1086" fill="#FFFFFF" d="M1409.4,721.2l-0.3,9.8c-65.1-3.1-129.3-1.7-145.9,14.6l-12.2,119.4     c-35.3-72.6-225.3-272.5-225.3-272.5C1174.6,592.3,1409.4,721.2,1409.4,721.2L1409.4,721.2z"/>
			<path id="path1088" fill="#046992" d="M1294.4,1132.5l-26.1,34.3c0.7-44.8,15.9-98.7,34.6-149c2.4-6.1,4.8-12.2,6.8-18l0,0     l70.2-94.3l-24.8,147.9L1294.4,1132.5L1294.4,1132.5z"/>
			<path id="path1090" fill="#C2C3C3" d="M1355.1,1091.7l-8.5,75.7l-10.2,92c-19.7-2.4-31.6-3.7-31.6-3.7     c-27.8-17-37.7-49.2-37-88.6l26.1-34.3L1355.1,1091.7z"/>
			<path id="path1092" fill="#1B181C" d="M1250.6,864.7l-7.5,72.6h-22.7l-137.1-145.6c-37-44.1-58-199.9-58-199.9     S1215.3,792.1,1250.6,864.7L1250.6,864.7z"/>
			<path id="path1094" fill="#FFFFFF" d="M1243.1,937.7l-10.5,101.5l-265,27.5l0,0L692.1,792.5l0,0c115-53.3,391.2,0,391.2,0     L1220.4,938h22.7V937.7z"/>
			<polygon id="polygon1096" fill="#FFFFFF" points="1232.6,1039.2 1220.4,1158.6 1083.3,1181.7 967.6,1066.3    "/>
			<path id="path1098" fill="#FFFFFF" d="M1220.4,1158.6l-178.5,105.9l-50.2-37c18-23.1,50.2-46.1,50.2-46.1h41.4L1220.4,1158.6     L1220.4,1158.6z"/>
			<path id="path1100" fill="#1B181C" d="M1083.3,1181.7h-41.4l-16.3-14.6L857,1016.4l-74.6-66.8l0,0     c-29.2-77-87.9-154.4-89.9-157.4l275.5,274.2l0,0L1083.3,1181.7L1083.3,1181.7z"/>
			<path id="path1102" fill="#FFFFFF" d="M1041.9,1264.5l3.7,27.5l-24.1,69.2l-29.2,2.4c-12.9-1.7-21-2.4-21-2.4l-23.1,97l-59.4-9.8     v142.9l-340.3-98.1c49.9-7.8,83.1-12.6,83.1-12.6l31.6,12.6h189l9.8-166.6l-170.7-9.8v-1.7l55.3-81.1l115,21.4L1041.9,1264.5     L1041.9,1264.5z"/>
			<path id="path1104" fill="#1B181C" d="M1025.3,1166.7l16.3,14.6c0,0-32.2,23.1-50.2,46.1c-17.6,22.7-321-23.8-327.8-24.8l0,0     c-14.9-10.9-31.6-17-31.6-17s0-36.6,124.2-92c54-24.1,48.9-84.2,25.8-144.5l0,0l74.6,66.8c15.9,76-100.4,150.7-100.4,150.7     L1025.3,1166.7L1025.3,1166.7z"/>
			<path id="path1106" fill="#FFFFFF" d="M1041.9,1264.5l-179.5-9.2l-115-21.4l-55.3,81.1v1.7l-28.2-1.7v-41.4     c40.4-29.9,22.1-55,0-70.6c6.8,1,310.1,47.5,327.8,24.8L1041.9,1264.5L1041.9,1264.5z"/>
			<path id="path1108" fill="#046992" d="M1025.3,1166.7H756.2c0,0,116.4-74.6,100.4-150.7L1025.3,1166.7z"/>
			<polygon id="polygon1110" fill="#C2C3C3" points="862.4,1326.6 852.6,1493.5 663.6,1493.5 632,1480.9 663.6,1315 691.7,1316.7         "/>
		</g>
		<g id="g1112">
			<path id="path1114" fill="none" stroke="#1B181C" stroke-width="5" d="M663.9,1203c21.7,15.6,40.4,40.7,0,70.6v41.4l-31.6,165.6     c0,0-33.3,4.8-83.1,12.6c-146.2,22.7-435,70.6-441.8,98.1c-4.1,16.6-7.5,39-8.5,60.1c-1.4,25.1,0.7,47.8,8.5,55.3     c13.9,13.9,957.9,105.9,1068.2,101.1c110.6-4.8,129.6,0,129.6,0s75.7,68.9,157.1,64.1c81.4-4.8,1650.1-92,1650.1-92l-5.4-46.8     l-7.1-63.8l-8.8-78.4l-22.1-193.4l-427.2,23.1c0,0,71.9-529.7-250.4-911.7s-449.9-345.4-449.9-345.4s-40.7,112-60.1,232.8     c-9.2,56-13.6,113.7-7.5,163.2c0,0-163.9-60.1-205.6-41.4c0,0-267.4-170.3-331.9-170.3l72.6,372.9c0,0-234.8-128.9-383.8-128.9     c-149.3,0,21,155.7,58,199.9c0,0-276.2-53.3-391.2,0"/>
			<path id="path1116" fill="none" stroke="#1B181C" stroke-width="5" d="M692.1,792.1c2.4,3.1,60.7,80.4,89.9,157.4     c23.1,60.4,28.2,120.5-25.8,144.5c-124.2,55.3-124.2,92-124.2,92s16.6,6.1,31.6,17"/>
			<path id="path1118" fill="none" stroke="#1B181C" stroke-width="5" d="M1927.9,569.2c0,0-10.9-178.1,62.4-271.8     c73.6-93.7,33.9,31.9,85.5,89.2c33.6,37.3,75,84.8,119.4,141.8c161.5,206.6,366.1,530.4,403.8,883.2c0,0-46.8-782.8-631.5-1197.1     c0,0-64.1,90.3-86.2,181.9c-4.4,19-7.5,38-7.5,56.3"/>
			<path id="path1120" fill="none" stroke="#1B181C" stroke-width="5" d="M2146.7,587.5c0,0,436.7,529.7,416.7,824.2"/>
			<path id="path1122" fill="none" stroke="#1B181C" stroke-width="5" d="M2002.2,611.6c21,13.2,42.1,29.5,61.1,49.9l78.4-78.7     l53.6-54"/>
			<path id="path1124" fill="none" stroke="#1B181C" stroke-width="5" d="M1873.9,560c0,0,21.4,3.7,51.9,14.6     c22.1,7.8,48.9,19.7,76,36.6"/>
			<polyline id="polyline1126" fill="none" stroke="#1B181C" stroke-width="5" points="2076.1,387 2002.2,611.6 2002.2,611.6    "/>
			<path id="path1128" fill="none" stroke="#1B181C" stroke-width="5" d="M1670,775.2l94.3,38l37.7-82.8     c0,0,444.8,409.9,512.4,653.9h156.8l73.3,27.8l18.7,1.7l35.6,3.4l43.1,4.1"/>
			<path id="path1130" fill="none" stroke="#1B181C" stroke-width="5" d="M2353.7,1384.2c0,0-279.9-598.6-685.4-865.6l-97.7,216.5     l34.9,13.9l64.5,26.1"/>
			<polyline id="polyline1132" fill="none" stroke="#1B181C" stroke-width="5" points="1768,638.4 1766,641.8 1699.2,767      1670,775.2 1670,775.2    "/>
			<path id="path1134" fill="none" stroke="#1B181C" stroke-width="5" d="M1550.5,739.5c0,0,4.1,3.1,7.5,4.8c2,1,4.1,1.7,5.1,0.7     c1-1,1-3.4-1-8.1c-2.7-6.4-8.8-17-20.4-33.9c-43.8-64.5-204.9-354.6-204.9-354.6"/>
			<polyline id="polyline1136" fill="none" stroke="#1B181C" stroke-width="5" points="1520.3,745.3 1517.6,739.5 1409.4,518.6      1446,725.6    "/>
			<polyline id="polyline1138" fill="none" stroke="#1B181C" stroke-width="5" points="967.6,1066.3 692.1,792.1 692.1,792.1    "/>
			<path id="path1140" fill="none" stroke="#1B181C" stroke-width="5" d="M1567.2,745.3c0,0-1.4-0.3-3.7-0.7     c-1.4-0.3-3.1-0.3-5.1-0.7c-8.5-1-22.7-2.7-40.4-4.8c-29.9-3.1-69.6-6.8-108.6-8.8c-65.1-3.1-129.3-1.7-145.9,14.6l-12.2,119.4     l-7.5,72.6l-10.5,101.5l-12.2,119.4L1084,1181l-115.7-115"/>
			<polyline id="polyline1142" fill="none" stroke="#1B181C" stroke-width="5" points="1083.3,792.1 1220.4,937.7 1243.1,937.7         "/>
			<path id="path1144" fill="none" stroke="#1B181C" stroke-width="5" d="M1941.4,1320.8l60.7-37.7l104.2,9.2l208.3,92     c-38.7-199.2-396.7-586-548.3-742.4c-41.1-42.4-67.2-67.9-67.2-67.9l-93.7,175.4"/>
			<path id="path1146" fill="none" stroke="#1B181C" stroke-width="5" d="M1025.3,592.3c0,0,190,199.9,225.3,272.5l45.8-72.6     c0,0,32.9,23.1,83.8,60.1c158.1,115,490,365.1,548,476.7c0,0,0,0,0,0.3l10.9-6.8"/>
			<polyline id="polyline1148" fill="none" stroke="#1B181C" stroke-width="5" points="1232.6,1039.2 967.6,1066.3 967.6,1066.3         "/>
			<path id="path1150" fill="none" stroke="#1B181C" stroke-width="5" d="M1262.8,745.3c0,0,546.3,318.3,678.3,575.1l-2.4,1.4     l-10.9,6.8l-54,32.6h-170l-49.5-18.3v-27.5l-113-9.5l-499.5-41.4l178.5-105.9"/>
			<polyline id="polyline1152" fill="none" stroke="#1B181C" stroke-width="5" points="782.3,949.6 857,1016.4 1025.3,1166.7      1041.9,1181.7 1083.3,1181.7    "/>
			<path id="path1154" fill="none" stroke="#1B181C" stroke-width="5" d="M1025.3,1166.7H756.2c0,0,116.4-74.6,100.4-150.7"/>
			<path id="path1156" fill="none" stroke="#1B181C" stroke-width="5" d="M663.6,1203L663.6,1203c6.8,1,310.1,47.5,328.1,24.8     c18-23.1,50.2-46.1,50.2-46.1"/>
			<polyline id="polyline1158" fill="none" stroke="#1B181C" stroke-width="5" points="991.7,1227.5 1041.9,1264.5 1045.6,1292.3      1610.6,1342.8 1654.4,1342.8    "/>
			<path id="path1160" fill="none" stroke="#1B181C" stroke-width="5" d="M107.1,1591.6c0,0,1160.5,152,1229.3,119.8l113.7,36.6     l249.1-11.9l1381-66.2h19.7"/>
			<path id="path1162" fill="none" stroke="#1B181C" stroke-width="5" d="M98.3,1651.3c0,0,0.3,0,0.7,0     c27.1,3.4,1115,142.2,1237.8,96.7l109.6,69.2l1653.5-82.8"/>
			<polyline id="polyline1164" fill="none" stroke="#1B181C" stroke-width="5" points="1873.9,1361.2 1903.1,1669.6 2496.9,1651.3      2544.4,1651.3 2544.4,1591.6 3090.7,1591.6    "/>
			<polyline id="polyline1166" fill="none" stroke="#1B181C" stroke-width="5" points="548.9,1493.5 889.2,1591.6 1379.9,1651.3      1699.2,1651.3 1699.2,1736.1    "/>
			<polyline id="polyline1168" fill="none" stroke="#1B181C" stroke-width="5" points="1703.9,1361.2 1701.2,1520 1699.2,1651.3         "/>
			<path id="path1170" fill="none" stroke="#1B181C" stroke-width="5" d="M948.6,1458.2l23.1-97c0,0,8.1,1,21,2.4     c50.6,5.8,176.4,20.4,187.3,20.4c13.9,0,266,27.8,266,27.8l252.8,9.2v99.1H1446l-283-26.8L948.6,1458.2l-59.4-9.8v142.9"/>
			<line id="line1172" fill="none" stroke="#1B181C" stroke-width="5" x1="1045.6" y1="1292.3" x2="1021.9" y2="1361.2"/>
			<polyline id="polyline1174" fill="none" stroke="#1B181C" stroke-width="5" points="663.6,1315 691.7,1316.7 862.4,1326.6      852.6,1493.5 663.6,1493.5 632,1480.9    "/>
			<polyline id="polyline1176" fill="none" stroke="#1B181C" stroke-width="5" points="692.1,1315 747.4,1233.9 862.4,1255.3      1041.9,1264.5    "/>
			<path id="path1178" fill="none" stroke="#1B181C" stroke-width="5" d="M1310,999.5c31.6-80.4,70.2-147.6,70.2-147.6"/>
			<path id="path1180" fill="none" stroke="#1B181C" stroke-width="5" d="M1436.9,949.6l9.5,116.7l-90.9-13.2l24.8-147.9     C1379.9,905.5,1402.6,922.8,1436.9,949.6c70.6,55,190.7,149,269.8,211.7c23.8,19,43.8,34.9,57.7,46.5     c82.5,67.5,41.7,56.7,3.7,77.4c-18,9.8-120.5,3.7-224.6-5.4c-81.1-7.1-163.6-15.9-207-21c-19.7-2.4-31.6-3.7-31.6-3.7     c-27.8-17-37.7-49.2-37-88.6c0.7-44.8,15.9-98.7,34.6-149c2.4-6.1,4.8-12.2,6.8-18"/>
			<polyline id="polyline1182" fill="none" stroke="#1B181C" stroke-width="5" points="1379.9,905.5 1310,999.5 1309.6,999.8    "/>
			<polyline id="polyline1184" fill="none" stroke="#1B181C" stroke-width="5" points="1355.1,1053.4 1294.4,1132.5 1268.2,1166.7      1268.2,1166.7    "/>
			<line id="line1186" fill="none" stroke="#1B181C" stroke-width="5" x1="1446" y1="1066.3" x2="1706.6" y2="1161.3"/>
			<polyline id="polyline1188" fill="none" stroke="#1B181C" stroke-width="5" points="1294,1132.8 1294.4,1132.5 1355.1,1091.7      1346.6,1167.1 1336.8,1259    "/>
			<line id="line1190" fill="none" stroke="#1B181C" stroke-width="5" x1="1764.3" y1="1207.8" x2="1346.6" y2="1167.1"/>
		</g>
	</g>
</g>
</svg>